<svg width="32" height="32" viewBox="0 0 32 32" fill="none" xmlns="http://www.w3.org/2000/svg">
<path d="M10.3428 8.92864C9.95232 8.53811 9.31916 8.53811 8.92864 8.92864C8.53811 9.31916 8.53811 9.95232 8.92864 10.3428L14.5855 15.9997L8.92871 21.6566C8.53819 22.0471 8.53819 22.6802 8.92871 23.0708C9.31923 23.4613 9.9524 23.4613 10.3429 23.0708L15.9997 17.414L21.6566 23.0708C22.0471 23.4613 22.6802 23.4613 23.0708 23.0708C23.4613 22.6802 23.4613 22.0471 23.0708 21.6566L17.414 15.9997L23.0708 10.3429C23.4614 9.95233 23.4614 9.31916 23.0708 8.92864C22.6803 8.53811 22.0472 8.53811 21.6566 8.92864L15.9997 14.5855L10.3428 8.92864Z" fill="#1C1C1C"/>
</svg>
