<svg width="32" height="32" viewBox="0 0 32 32" fill="none" xmlns="http://www.w3.org/2000/svg">
<path d="M28.7002 28.7127C28.5135 28.8965 28.2622 28.9998 28.0002 29.0002C27.7347 28.9991 27.4796 28.8962 27.2877 28.7127L21.8877 23.3002C19.6134 25.2104 16.6895 26.169 13.7257 25.9758C10.7619 25.7826 7.9871 24.4528 5.98 22.2635C3.97291 20.0742 2.88849 17.1946 2.95291 14.2252C3.01733 11.2558 4.22563 8.42596 6.32579 6.32579C8.42596 4.22563 11.2558 3.01733 14.2252 2.95291C17.1946 2.88849 20.0742 3.97291 22.2635 5.98C24.4528 7.9871 25.7826 10.7619 25.9758 13.7257C26.169 16.6895 25.2104 19.6134 23.3002 21.8877L28.7002 27.2877C28.7947 27.3807 28.8697 27.4917 28.9209 27.614C28.9721 27.7363 28.9985 27.8676 28.9985 28.0002C28.9985 28.1328 28.9721 28.2641 28.9209 28.3864C28.8697 28.5087 28.7947 28.6196 28.7002 28.7127ZM14.5002 24.0002C16.3791 24.0002 18.2158 23.443 19.7781 22.3992C21.3404 21.3553 22.558 19.8716 23.277 18.1357C23.9961 16.3998 24.1842 14.4897 23.8177 12.6468C23.4511 10.804 22.5463 9.11128 21.2177 7.78268C19.8891 6.45408 18.1964 5.54929 16.3536 5.18273C14.5107 4.81617 12.6006 5.00431 10.8647 5.72334C9.1288 6.44237 7.64511 7.66001 6.60123 9.22228C5.55736 10.7845 5.00019 12.6213 5.00019 14.5002C5.0035 17.0187 6.00545 19.4332 7.78633 21.2141C9.56721 22.9949 11.9817 23.9969 14.5002 24.0002Z" fill="#1C1C1C"/>
</svg>
